<?xml version="1.0" encoding="UTF-8"?>
<!-- Generator: Adobe Illustrator 18.0.0, SVG Export Plug-In . SVG Version: 6.00 Build 0)  -->
<!DOCTYPE svg PUBLIC "-//W3C//DTD SVG 1.1//EN" "http://www.w3.org/Graphics/SVG/1.1/DTD/svg11.dtd">
<svg version="1.1" id="Layer_1" xmlns="http://www.w3.org/2000/svg" xmlns:xlink="http://www.w3.org/1999/xlink" x="0px" y="0px" viewBox="0 0 100 100" enable-background="new 0 0 100 100" xml:space="preserve">
<g>
	<path fill="#66C1ED" d="M45.5,24.5c-3.8,2.2-6.9,4.1-9.2,5.6c-2.3,1.6-4.7,3.6-7.2,6.2c-2.3,2.4-4,5-5.2,7.6   c-1.2,2.7-2.1,6.1-2.5,10.3h5.8c5,0,9,1.2,11.8,3.7c2.9,2.5,4.3,6.1,4.3,10.9c0,3.4-1.3,6.6-3.8,9.5c-2.5,3-6.1,4.4-10.5,4.4   c-7,0-11.9-2.3-14.9-6.8s-4.5-10.6-4.5-18c0-5.3,1.1-10,3.4-14.4c2.3-4.3,5-8.2,8.3-11.6c3.3-3.5,6.8-6.4,10.6-8.8   c3.7-2.4,6.8-4.4,9.3-5.9L45.5,24.5z M90.4,24.5c-3.8,2.2-6.9,4.1-9.2,5.6c-2.3,1.6-4.7,3.6-7.2,6.2c-2.3,2.5-4.1,5.1-5.3,7.7   c-1.2,2.6-2,6-2.5,10.2h5.8c5,0,9,1.2,11.8,3.7c2.9,2.5,4.3,6.1,4.3,10.9c0,3.4-1.3,6.6-3.8,9.5c-2.5,3-6.1,4.4-10.5,4.4   c-7,0-11.9-2.3-14.9-6.8c-3-4.6-4.5-10.6-4.5-18c0-5.3,1.1-10,3.4-14.4c2.3-4.3,5-8.2,8.3-11.6c3.3-3.5,6.8-6.4,10.6-8.8   c3.7-2.4,6.8-4.4,9.3-5.9L90.4,24.5z"/>
</g>
</svg>